<svg width="20" height="20" viewBox="0 0 20 20" fill="none" xmlns="http://www.w3.org/2000/svg">
<g clip-path="url(#clip0_233_1893)">
<path d="M10 20C7.32891 20 4.8177 18.9598 2.92891 17.0711C1.0402 15.1823 0 12.6711 0 10C0 7.32891 1.0402 4.8177 2.92891 2.92891C4.8177 1.0402 7.32891 0 10 0C12.6711 0 15.1823 1.0402 17.0711 2.92891C18.9598 4.8177 20 7.32891 20 10C20 12.6711 18.9598 15.1823 17.0711 17.0711C15.1823 18.9598 12.6711 20 10 20ZM10 1.5625C5.34754 1.5625 1.5625 5.34754 1.5625 10C1.5625 14.6525 5.34754 18.4375 10 18.4375C14.6525 18.4375 18.4375 14.6525 18.4375 10C18.4375 5.34754 14.6525 1.5625 10 1.5625Z" fill="#8B90A6"/>
<path d="M13.6384 12.5335L11.1701 10.0652C11.1713 10.0436 11.1719 10.0219 11.1719 10C11.1719 9.65273 11.0208 9.34078 10.7809 9.12617C10.7811 9.11801 10.7812 9.1098 10.7812 9.10156V4.53125C10.7812 4.09977 10.4315 3.75 10 3.75C9.56852 3.75 9.21875 4.09977 9.21875 4.53125V9.10156C9.21875 9.1098 9.21891 9.11801 9.21914 9.12617C8.97918 9.34078 8.82812 9.65273 8.82812 10C8.82812 10.6472 9.35277 11.1719 10 11.1719C10.0219 11.1719 10.0436 11.1713 10.0652 11.1701L12.5335 13.6384C12.6861 13.7909 12.886 13.8672 13.0859 13.8672C13.2859 13.8672 13.4858 13.7909 13.6384 13.6384C13.9435 13.3333 13.9435 12.8386 13.6384 12.5335Z" fill="#8B90A6"/>
</g>
<defs>
<clipPath id="clip0_233_1893">
<rect width="20" height="20" fill="white"/>
</clipPath>
</defs>
</svg>
