<svg width="20" height="20" viewBox="0 0 20 20" fill="none" xmlns="http://www.w3.org/2000/svg">
<path d="M10.2682 4.81891C10.6148 4.81913 10.8952 5.10027 10.8952 5.44684V9.95367L13.8347 12.1793L13.9284 12.2652C14.1221 12.4836 14.1417 12.8155 13.9597 13.0582C13.7516 13.3351 13.3589 13.391 13.0817 13.1832L9.86688 10.773L9.86493 10.7711C9.725 10.6583 9.64039 10.4701 9.64032 10.2681V5.44684C9.64032 5.10013 9.92155 4.81891 10.2682 4.81891Z" fill="#36187D" stroke="#36187D" stroke-width="0.183674"/>
<path d="M10.5361 1.8725C15.0248 1.87273 18.6631 5.51171 18.6631 10.0004C18.6629 14.489 15.0247 18.1262 10.5361 18.1264C8.00534 18.1675 5.61387 16.9705 4.13184 14.9184V14.9174C3.93066 14.635 3.99698 14.2435 4.2793 14.0424C4.56143 13.8417 4.95211 13.9074 5.15332 14.1889C6.40053 15.9089 8.41008 16.9111 10.5342 16.8725H10.5361C13.9064 16.8728 16.7798 14.4287 17.3203 11.102C17.9289 7.35555 15.3849 3.82497 11.6387 3.21625C7.99029 2.62349 4.54731 5.02074 3.80762 8.60687L3.92969 8.48383V8.48285C4.17466 8.23814 4.57237 8.2382 4.81738 8.48285C5.06244 8.72791 5.06244 9.12646 4.81738 9.37152L3.47852 10.7104C3.36145 10.8284 3.20233 10.8953 3.03613 10.8959H2.97266V10.895C2.78621 10.8752 2.6179 10.773 2.51465 10.6166L1.44336 9.00922C1.24933 8.72153 1.32573 8.33125 1.61328 8.13715C1.90096 7.94325 2.29128 8.01957 2.48535 8.30707L2.56348 8.42426C3.31267 4.62763 6.64537 1.8725 10.5361 1.8725Z" fill="#36187D" stroke="#36187D" stroke-width="0.183674"/>
</svg>
