<svg width="20" height="20" viewBox="0 0 20 20" fill="none" xmlns="http://www.w3.org/2000/svg">
<g clip-path="url(#clip0_14_68)">
<path d="M14.8438 1.5625H14.0625V0.78125C14.0625 0.349766 13.7127 0 13.2812 0C12.8498 0 12.5 0.349766 12.5 0.78125V1.5625H6.25V0.78125C6.25 0.349766 5.90023 0 5.46875 0C5.03727 0 4.6875 0.349766 4.6875 0.78125V1.5625H3.90625C1.75234 1.5625 0 3.31484 0 5.46875V14.8438C0 16.9977 1.75234 18.75 3.90625 18.75H7.68371C8.11516 18.75 8.46496 18.4002 8.46496 17.9688C8.46496 17.5373 8.11516 17.1875 7.68371 17.1875H3.90625C2.61391 17.1875 1.5625 16.1361 1.5625 14.8438V7.8125H17.9688C18.4002 7.8125 18.75 7.46273 18.75 7.03125V5.46875C18.75 3.31484 16.9977 1.5625 14.8438 1.5625ZM17.1875 6.25H1.5625V5.46875C1.5625 4.17641 2.61391 3.125 3.90625 3.125H4.6875V3.90625C4.6875 4.33773 5.03727 4.6875 5.46875 4.6875C5.90023 4.6875 6.25 4.33773 6.25 3.90625V3.125H12.5V3.90625C12.5 4.33773 12.8498 4.6875 13.2812 4.6875C13.7127 4.6875 14.0625 4.33773 14.0625 3.90625V3.125H14.8438C16.1361 3.125 17.1875 4.17641 17.1875 5.46875V6.25Z" fill="#36187D"/>
<path d="M3.90625 10.9375C4.33772 10.9375 4.6875 10.5877 4.6875 10.1562C4.6875 9.72478 4.33772 9.375 3.90625 9.375C3.47478 9.375 3.125 9.72478 3.125 10.1562C3.125 10.5877 3.47478 10.9375 3.90625 10.9375Z" fill="#36187D"/>
<path d="M7.03125 10.9375C7.46272 10.9375 7.8125 10.5877 7.8125 10.1562C7.8125 9.72478 7.46272 9.375 7.03125 9.375C6.59978 9.375 6.25 9.72478 6.25 10.1562C6.25 10.5877 6.59978 10.9375 7.03125 10.9375Z" fill="#36187D"/>
<path d="M3.90625 14.0625C4.33772 14.0625 4.6875 13.7127 4.6875 13.2812C4.6875 12.8498 4.33772 12.5 3.90625 12.5C3.47478 12.5 3.125 12.8498 3.125 13.2812C3.125 13.7127 3.47478 14.0625 3.90625 14.0625Z" fill="#36187D"/>
<path d="M7.03125 14.0625C7.46272 14.0625 7.8125 13.7127 7.8125 13.2812C7.8125 12.8498 7.46272 12.5 7.03125 12.5C6.59978 12.5 6.25 12.8498 6.25 13.2812C6.25 13.7127 6.59978 14.0625 7.03125 14.0625Z" fill="#36187D"/>
<path d="M14.5312 9.0625C11.5158 9.0625 9.0625 11.5158 9.0625 14.5312C9.0625 17.5467 11.5158 20 14.5312 20C17.5467 20 20 17.5467 20 14.5312C20 11.5158 17.5467 9.0625 14.5312 9.0625ZM14.5312 18.4375C12.3773 18.4375 10.625 16.6852 10.625 14.5312C10.625 12.3773 12.3773 10.625 14.5312 10.625C16.6852 10.625 18.4375 12.3773 18.4375 14.5312C18.4375 16.6852 16.6852 18.4375 14.5312 18.4375Z" fill="#36187D"/>
<path d="M16.0938 13.75H15.3125V12.9688C15.3125 12.5373 14.9627 12.1875 14.5312 12.1875C14.0998 12.1875 13.75 12.5373 13.75 12.9688V14.5312C13.75 14.9627 14.0998 15.3125 14.5312 15.3125H16.0938C16.5252 15.3125 16.875 14.9627 16.875 14.5312C16.875 14.0998 16.5252 13.75 16.0938 13.75Z" fill="#36187D"/>
</g>
<defs>
<clipPath id="clip0_14_68">
<rect width="20" height="20" fill="white"/>
</clipPath>
</defs>
</svg>
