<svg width="20" height="20" viewBox="0 0 20 20" fill="none" xmlns="http://www.w3.org/2000/svg">
<path d="M4.53125 17.6562V9.84375C4.53125 8.98082 5.23082 8.28125 6.09375 8.28125H3.75C2.88707 8.28125 2.1875 8.98082 2.1875 9.84375V17.6562C2.1875 18.5192 2.88707 19.2188 3.75 19.2188H6.09375C5.23082 19.2188 4.53125 18.5192 4.53125 17.6562Z" fill="#D7EBF5"/>
<path d="M11.5625 13.75H10.7812V12.9688C10.7812 12.5373 10.4315 12.1875 10 12.1875C9.56852 12.1875 9.21875 12.5373 9.21875 12.9688V13.75H8.4375C8.00602 13.75 7.65625 14.0998 7.65625 14.5312C7.65625 14.9627 8.00602 15.3125 8.4375 15.3125H9.21875V16.0938C9.21875 16.5252 9.56852 16.875 10 16.875C10.4315 16.875 10.7812 16.5252 10.7812 16.0938V15.3125H11.5625C11.994 15.3125 12.3438 14.9627 12.3438 14.5312C12.3438 14.0998 11.994 13.75 11.5625 13.75Z" fill="#34B9FC"/>
<path d="M16.25 9.0625H8.76109L7.42742 7.72883C7.28094 7.5823 7.08219 7.5 6.875 7.5H4.53125V2.34375C4.53125 1.91297 4.88172 1.5625 5.3125 1.5625H10.7812V3.90625C10.7812 5.19859 11.8327 6.25 13.125 6.25H15.4688V6.71875C15.4688 7.15023 15.8185 7.5 16.25 7.5C16.6815 7.5 17.0312 7.15023 17.0312 6.71875V5.46875C17.0312 5.25832 16.943 5.05676 16.8023 4.91621L12.115 0.228906C11.9648 0.0786719 11.7593 0 11.5625 0H5.3125C4.02016 0 2.96875 1.05141 2.96875 2.34375V7.63438C2.05945 7.95687 1.40625 8.82527 1.40625 9.84375V17.6562C1.40625 18.9486 2.45766 20 3.75 20H16.25C17.5423 20 18.5938 18.9486 18.5938 17.6562V11.4062C18.5938 10.1139 17.5423 9.0625 16.25 9.0625ZM12.3438 3.90625V2.66734L14.3639 4.6875H13.125C12.6942 4.6875 12.3438 4.33703 12.3438 3.90625ZM17.0312 17.6562C17.0312 18.087 16.6808 18.4375 16.25 18.4375H3.75C3.31922 18.4375 2.96875 18.087 2.96875 17.6562V9.84375C2.96875 9.41297 3.31922 9.0625 3.75 9.0625H6.55141L7.88508 10.3962C8.03156 10.5427 8.23031 10.625 8.4375 10.625H16.25C16.6808 10.625 17.0312 10.9755 17.0312 11.4062V17.6562Z" fill="#34B9FC"/>
</svg>
