<svg width="28" height="28" viewBox="0 0 28 28" fill="none" xmlns="http://www.w3.org/2000/svg">
<path d="M21.2373 6.05249C21.4247 6.05249 21.6047 6.12709 21.7373 6.25952C21.8698 6.39202 21.9442 6.57215 21.9443 6.75952C21.9443 6.94706 21.8699 7.12789 21.7373 7.2605L15 13.9998L21.7402 20.7371C21.8728 20.8696 21.9472 21.0496 21.9473 21.2371C21.9473 21.4245 21.8728 21.6045 21.7402 21.7371C21.6076 21.8697 21.4278 21.9441 21.2402 21.9441C21.0527 21.9441 20.8728 21.8697 20.7402 21.7371L14 14.9998L7.2627 21.7371C7.19706 21.8028 7.11899 21.8548 7.0332 21.8904C6.94746 21.9259 6.85551 21.9441 6.7627 21.9441C6.66988 21.9441 6.57793 21.9259 6.49219 21.8904C6.44932 21.8726 6.40851 21.8506 6.37012 21.825L6.2627 21.7371C6.13113 21.6047 6.05673 21.4256 6.05664 21.239C6.05664 21.0523 6.13105 20.8724 6.2627 20.74L13 13.9998L6.2627 7.25952L6.25488 7.25171C6.13909 7.11649 6.07907 6.94229 6.08594 6.7644C6.09283 6.58655 6.16614 6.41761 6.29199 6.29175C6.41787 6.16591 6.58679 6.09256 6.76465 6.08569C6.89804 6.08055 7.02927 6.11294 7.14355 6.17847L7.25195 6.25464L7.26074 6.26245H7.25977L14 12.9998L20.7373 6.2605V6.25952C20.8699 6.12706 21.0499 6.05251 21.2373 6.05249Z" fill="#D4D5D9" stroke="#D4D5D9" stroke-width="0.3"/>
</svg>
