<svg width="20" height="20" viewBox="0 0 20 20" fill="none" xmlns="http://www.w3.org/2000/svg">
<g clip-path="url(#clip0_159_182)">
<path d="M11.5625 16.875C11.131 16.875 10.7812 17.2248 10.7812 17.6562C10.7812 18.087 10.4308 18.4375 10 18.4375C9.56922 18.4375 9.21875 18.087 9.21875 17.6562C9.21875 17.2248 8.86898 16.875 8.4375 16.875C8.00602 16.875 7.65625 17.2248 7.65625 17.6562C7.65625 18.9486 8.70766 20 10 20C11.2923 20 12.3438 18.9486 12.3438 17.6562C12.3438 17.2248 11.9939 16.875 11.5625 16.875Z" fill="#8B90A6"/>
<path d="M2.18849 6.23432C2.60846 6.31998 3.02334 6.05026 3.11002 5.62483C3.45275 3.94334 4.40342 2.44506 5.78685 1.40596C6.13185 1.14682 6.20146 0.657094 5.94232 0.312094C5.68318 -0.0328666 5.19346 -0.102515 4.84849 0.156626C3.15928 1.42541 1.99814 3.25659 1.579 5.31276C1.49283 5.73557 1.76572 6.14815 2.18849 6.23432Z" fill="#8B90A6"/>
<path d="M14.0578 0.312114C13.7986 0.657114 13.8682 1.14684 14.2132 1.40598C15.5967 2.44508 16.5473 3.94336 16.8901 5.62485C16.9763 6.04821 17.3892 6.32032 17.8116 6.23434C18.2344 6.14817 18.5073 5.73555 18.4211 5.31278C18.0019 3.25657 16.8408 1.4254 15.1515 0.156606C14.8066 -0.102495 14.3168 -0.032886 14.0578 0.312114Z" fill="#8B90A6"/>
<path d="M9.21875 1.61862C6.57207 1.99889 4.53125 4.28108 4.53125 7.03131V10.2701C4.53125 10.5459 4.40703 10.7965 4.22219 10.8938C3.44902 11.3006 2.96875 12.0957 2.96875 12.9689C2.96875 14.2612 4.02016 15.3126 5.3125 15.3126H14.6875C15.9798 15.3126 17.0312 14.2612 17.0312 12.9689C17.0312 12.0957 16.551 11.3006 15.7778 10.8938C15.593 10.7965 15.4688 10.5459 15.4688 10.2701V7.03135C15.4688 4.28112 13.4279 1.99889 10.7812 1.61865V0.781311C10.7812 0.349827 10.4315 6.10352e-05 10 6.10352e-05C9.56852 6.10352e-05 9.21875 0.349827 9.21875 0.781311V1.61862ZM13.9062 7.03131V10.2701C13.9062 11.1364 14.3446 11.9053 15.0503 12.2765C15.3084 12.4124 15.4688 12.6776 15.4688 12.9688C15.4688 13.3996 15.1183 13.7501 14.6875 13.7501H5.3125C4.88172 13.7501 4.53125 13.3996 4.53125 12.9688C4.53125 12.6776 4.69156 12.4123 4.94973 12.2765C5.65539 11.9052 6.09375 11.1364 6.09375 10.2701V7.03127C6.09375 4.87737 7.84605 3.12502 10 3.12502C12.1539 3.12502 13.9062 4.8774 13.9062 7.03131Z" fill="#8B90A6"/>
<line x1="1.41421" y1="1" x2="17" y2="16.5858" stroke="#8B90A6" stroke-width="2" stroke-linecap="round"/>
</g>
<defs>
<clipPath id="clip0_159_182">
<rect width="20" height="20" fill="white"/>
</clipPath>
</defs>
</svg>
