<svg width="20" height="20" viewBox="0 0 20 20" fill="none" xmlns="http://www.w3.org/2000/svg">
<g clip-path="url(#clip0_20_508)">
<path d="M6.87512 10.3906C7.30659 10.3906 7.65637 10.0408 7.65637 9.60938C7.65637 9.1779 7.30659 8.82812 6.87512 8.82812C6.44365 8.82812 6.09387 9.1779 6.09387 9.60938C6.09387 10.0408 6.44365 10.3906 6.87512 10.3906Z" fill="#8B90A6"/>
<path d="M13.125 10.3906C13.5565 10.3906 13.9062 10.0408 13.9062 9.60938C13.9062 9.1779 13.5565 8.82812 13.125 8.82812C12.6935 8.82812 12.3438 9.1779 12.3438 9.60938C12.3438 10.0408 12.6935 10.3906 13.125 10.3906Z" fill="#8B90A6"/>
<path d="M19.9998 2.65668C19.9998 1.99571 19.7431 1.37897 19.277 0.920067C18.8179 0.468161 18.2112 0.224884 17.5719 0.234845C16.3316 0.254297 15.123 0.716008 14.1688 1.53494C13.4524 2.14973 12.8988 2.94816 12.562 3.83752C11.7417 3.60627 10.8868 3.4894 10 3.4894C9.11319 3.4894 8.25837 3.60627 7.43803 3.83752C7.10124 2.94816 6.54765 2.14973 5.83126 1.53494C4.87702 0.715969 3.66845 0.254258 2.42816 0.234845C1.78707 0.225353 1.18208 0.468161 0.723069 0.920067C0.256905 1.37897 0.000190806 1.99567 0.000190806 2.65668V9.21859C0.000190806 11.1744 0.493151 13.0452 1.41521 14.6689L0.432019 15.1605C0.0461275 15.3535 -0.110315 15.8228 0.0826503 16.2087C0.275655 16.5947 0.744943 16.751 1.1308 16.558L2.29398 15.9764C2.4789 16.2113 2.67366 16.4391 2.87928 16.6584C2.99033 16.7768 3.10385 16.8918 3.21935 17.0039L1.79145 18.4318C1.48634 18.7369 1.48634 19.2316 1.79145 19.5367C2.09656 19.8418 2.5912 19.8418 2.89627 19.5367L4.42722 18.0057C6.05333 19.1505 7.9754 19.7655 9.99998 19.7655C12.0246 19.7655 13.9466 19.1505 15.5727 18.0057L17.1037 19.5367C17.4088 19.8418 17.9034 19.8418 18.2085 19.5367C18.5136 19.2315 18.5136 18.7369 18.2085 18.4318L16.7806 17.0039C16.8961 16.8918 17.0096 16.7768 17.1207 16.6584C17.3263 16.4391 17.5211 16.2113 17.706 15.9764L18.8692 16.558C19.2551 16.751 19.7243 16.5946 19.9173 16.2087C20.1102 15.8228 19.9538 15.3535 19.5679 15.1605L18.5847 14.6689C19.5068 13.0452 19.9998 11.1744 19.9998 9.21859V2.65668H19.9998ZM1.56266 9.21859V2.65668C1.56266 2.4177 1.65376 2.19637 1.81918 2.03352C1.97754 1.87767 2.18543 1.79376 2.40366 1.79712C4.01137 1.82232 5.40572 2.85999 5.97735 4.38829C5.0569 4.82785 4.18727 5.42725 3.37365 6.18583C3.05807 6.48005 3.04076 6.97441 3.33498 7.28999C3.62919 7.60554 4.12356 7.62284 4.43914 7.32866C6.05954 5.81787 7.93052 5.05183 10 5.05183C12.0695 5.05183 13.9405 5.81787 15.5609 7.32866C15.7114 7.46905 15.9027 7.5385 16.0935 7.5385C16.3026 7.5385 16.5112 7.45503 16.6651 7.29003C16.9593 6.97445 16.942 6.48009 16.6264 6.18587C15.8128 5.42729 14.9431 4.82789 14.0227 4.38833C14.5943 2.86003 15.9886 1.82236 17.5963 1.79716C17.8148 1.79294 18.0225 1.87771 18.1808 2.03356C18.3462 2.19641 18.4373 2.4177 18.4373 2.65672V9.21859C18.4373 14.2188 14.7691 18.203 9.99998 18.203C5.22846 18.203 1.56266 14.2082 1.56266 9.21859Z" fill="#8B90A6"/>
<path d="M11.5624 15.078C11.1317 15.078 10.7812 14.7276 10.7812 14.2968V13.5155H11.5624C11.9939 13.5155 12.3437 13.1658 12.3437 12.7343C12.3437 12.3028 11.9939 11.9531 11.5624 11.9531H8.43749C8.00601 11.9531 7.65625 12.3028 7.65625 12.7343C7.65625 13.1658 8.00601 13.5155 8.43749 13.5155H9.21872V14.2968C9.21872 14.7276 8.86826 15.078 8.43749 15.078C8.00601 15.078 7.65625 15.4278 7.65625 15.8593C7.65625 16.2907 8.00601 16.6405 8.43749 16.6405C9.03728 16.6405 9.58497 16.4137 9.99996 16.0418C10.415 16.4137 10.9626 16.6405 11.5624 16.6405C11.9939 16.6405 12.3437 16.2907 12.3437 15.8593C12.3437 15.4278 11.9939 15.078 11.5624 15.078Z" fill="#8B90A6"/>
</g>
<defs>
<clipPath id="clip0_20_508">
<rect width="20" height="20" fill="white"/>
</clipPath>
</defs>
</svg>
