<svg width="20" height="20" viewBox="0 0 20 20" fill="none" xmlns="http://www.w3.org/2000/svg">
<g clip-path="url(#clip0_124_2553)">
<path d="M16.0938 1.40625H15.4688V0.78125C15.4688 0.349766 15.119 0 14.6875 0C14.256 0 13.9062 0.349766 13.9062 0.78125V1.40625H10.7812V0.78125C10.7812 0.349766 10.4315 0 10 0C9.56852 0 9.21875 0.349766 9.21875 0.78125V1.40625H6.09375V0.78125C6.09375 0.349766 5.74398 0 5.3125 0C4.88102 0 4.53125 0.349766 4.53125 0.78125V1.40625H3.90625C1.7523 1.40625 0 3.15859 0 5.3125V16.0938C0 18.2477 1.7523 20 3.90625 20H16.0938C18.2477 20 20 18.2477 20 16.0938V10C20 9.56852 19.6502 9.21875 19.2188 9.21875C18.7873 9.21875 18.4375 9.56852 18.4375 10V16.0938C18.4375 17.3861 17.3861 18.4375 16.0938 18.4375H3.90625C2.61391 18.4375 1.5625 17.3861 1.5625 16.0938V7.65625H19.2188C19.6502 7.65625 20 7.30648 20 6.875V5.3125C20 3.15859 18.2477 1.40625 16.0938 1.40625ZM18.4375 6.09375H1.5625V5.3125C1.5625 4.02016 2.61391 2.96875 3.90625 2.96875H4.53125V3.75C4.53125 4.18148 4.88102 4.53125 5.3125 4.53125C5.74398 4.53125 6.09375 4.18148 6.09375 3.75V2.96875H9.21875V3.75C9.21875 4.18148 9.56852 4.53125 10 4.53125C10.4315 4.53125 10.7812 4.18148 10.7812 3.75V2.96875H13.9062V3.75C13.9062 4.18148 14.256 4.53125 14.6875 4.53125C15.119 4.53125 15.4688 4.18148 15.4688 3.75V2.96875H16.0938C17.3861 2.96875 18.4375 4.02016 18.4375 5.3125V6.09375Z" fill="#8B90A6"/>
<path d="M6.09375 12.3438H4.53125C4.09977 12.3438 3.75 12.6935 3.75 13.125C3.75 13.5565 4.09977 13.9062 4.53125 13.9062H6.09375C6.52523 13.9062 6.875 13.5565 6.875 13.125C6.875 12.6935 6.52523 12.3438 6.09375 12.3438Z" fill="#8B90A6"/>
<path d="M6.09375 15.4688H4.53125C4.09977 15.4688 3.75 15.8185 3.75 16.25C3.75 16.6815 4.09977 17.0312 4.53125 17.0312H6.09375C6.52523 17.0312 6.875 16.6815 6.875 16.25C6.875 15.8185 6.52523 15.4688 6.09375 15.4688Z" fill="#8B90A6"/>
<path d="M10.7812 12.3438H9.21875C8.78727 12.3438 8.4375 12.6935 8.4375 13.125C8.4375 13.5565 8.78727 13.9062 9.21875 13.9062H10.7812C11.2127 13.9062 11.5625 13.5565 11.5625 13.125C11.5625 12.6935 11.2127 12.3438 10.7812 12.3438Z" fill="#8B90A6"/>
<path d="M10.7812 15.4688H9.21875C8.78727 15.4688 8.4375 15.8185 8.4375 16.25C8.4375 16.6815 8.78727 17.0312 9.21875 17.0312H10.7812C11.2127 17.0312 11.5625 16.6815 11.5625 16.25C11.5625 15.8185 11.2127 15.4688 10.7812 15.4688Z" fill="#8B90A6"/>
<path d="M15.4688 12.3438H13.9062C13.4748 12.3438 13.125 12.6935 13.125 13.125C13.125 13.5565 13.4748 13.9062 13.9062 13.9062H15.4688C15.9002 13.9062 16.25 13.5565 16.25 13.125C16.25 12.6935 15.9002 12.3438 15.4688 12.3438Z" fill="#8B90A6"/>
<path d="M10.7812 9.21875H9.21875C8.78727 9.21875 8.4375 9.56852 8.4375 10C8.4375 10.4315 8.78727 10.7812 9.21875 10.7812H10.7812C11.2127 10.7812 11.5625 10.4315 11.5625 10C11.5625 9.56852 11.2127 9.21875 10.7812 9.21875Z" fill="#8B90A6"/>
<path d="M15.4688 9.21875H13.9062C13.4748 9.21875 13.125 9.56852 13.125 10C13.125 10.4315 13.4748 10.7812 13.9062 10.7812H15.4688C15.9002 10.7812 16.25 10.4315 16.25 10C16.25 9.56852 15.9002 9.21875 15.4688 9.21875Z" fill="#8B90A6"/>
<path d="M15.4688 15.4688H13.9062C13.4748 15.4688 13.125 15.8185 13.125 16.25C13.125 16.6815 13.4748 17.0312 13.9062 17.0312H15.4688C15.9002 17.0312 16.25 16.6815 16.25 16.25C16.25 15.8185 15.9002 15.4688 15.4688 15.4688Z" fill="#8B90A6"/>
<path d="M6.09375 10.7812C6.52523 10.7812 6.875 10.4315 6.875 10C6.875 9.56852 6.52523 9.21875 6.09375 9.21875H4.53125C4.09977 9.21875 3.75 9.56852 3.75 10C3.75 10.4315 4.09977 10.7812 4.53125 10.7812H6.09375Z" fill="#8B90A6"/>
</g>
<defs>
<clipPath id="clip0_124_2553">
<rect width="20" height="20" fill="white"/>
</clipPath>
</defs>
</svg>
