<svg width="20" height="24" viewBox="0 0 20 24" fill="none" xmlns="http://www.w3.org/2000/svg">
<path d="M11.2634 6L2.90212 14.3617C2.8282 14.4356 2.77847 14.5297 2.75738 14.6311L2.01029 18.3682C1.97546 18.5414 2.03041 18.72 2.15502 18.8458C2.25545 18.9462 2.3907 19 2.52925 19C2.56292 19 2.59794 18.9969 2.63277 18.9896L6.36844 18.2424C6.47196 18.2211 6.566 18.1716 6.63895 18.0975L15 9.73577L11.2634 6Z" fill="currentColor"/>
<path d="M17.2227 3.77655C16.1877 2.74115 14.5037 2.74115 13.4694 3.77655L12 5.24613L15.7534 9L17.2227 7.53022C17.7239 7.03012 18 6.36319 18 5.65387C18 4.94455 17.7239 4.27762 17.2227 3.77655Z" fill="currentColor"/>
</svg>
