<svg width="181" height="42" viewBox="0 0 181 42" fill="none" xmlns="http://www.w3.org/2000/svg">
<path d="M23.5089 36.1773C25.2508 36.6065 27.042 36.6976 28.4015 35.8844C29.601 35.1666 30.1873 33.9417 30.4601 32.6656C30.5013 32.6641 30.5429 32.6626 30.5841 32.6607C39.0176 32.273 45.6249 25.707 46.4376 17.5924C46.8478 13.4983 45.8558 9.41333 43.7423 5.86875C43.6238 5.66985 43.4917 5.40703 43.3214 5.19981C43.1471 4.9878 42.9187 4.81597 42.5939 4.80137C42.2491 4.78602 41.9923 4.95913 41.7931 5.17832C41.5975 5.3936 41.442 5.67047 41.3087 5.87559C41.11 6.18164 40.936 6.50191 40.7902 6.83457C39.0297 6.45505 37.2355 6.39561 35.4777 6.8209C35.3468 6.54835 35.2077 6.2819 35.0568 6.01035C34.9376 5.79594 34.7993 5.54007 34.6163 5.33457C34.4308 5.12641 34.1916 4.96181 33.8693 4.94102C33.5598 4.92115 33.3085 5.04368 33.0997 5.21348C32.8935 5.3812 32.7208 5.60218 32.5704 5.78672C31.2523 7.40484 30.5774 9.12689 30.1193 11.1197C30.05 11.4212 30.087 11.6712 30.1984 11.857C30.3097 12.0427 30.4892 12.1545 30.6847 12.1881C31.0778 12.2553 31.5256 12.0097 31.6525 11.4586C32.0511 9.72456 32.6153 8.23628 33.7257 6.83945C33.9405 7.22903 34.1329 7.59975 34.2911 8.01426L34.5206 8.6168L34.5548 8.70469L34.6447 8.67637L35.2706 8.47715C37.1767 7.87041 39.1573 7.98021 41.0841 8.48887L41.7335 8.65977L41.8273 8.68516L41.8556 8.59238L42.0431 7.96055C42.1551 7.58408 42.3212 7.22702 42.5236 6.88731C44.3748 10.0984 45.2415 13.765 44.8732 17.442C44.1363 24.7988 38.1603 30.771 30.5099 31.1227C29.6655 31.1615 28.8174 31.1312 27.9777 31.0338C24.6503 30.6475 21.5164 29.2186 19.0714 26.983C17.1595 25.235 15.6195 22.8914 14.9181 20.4088C15.8211 20.7741 16.8596 21.099 17.882 21.19C18.9773 21.2875 20.0641 21.1184 20.9406 20.4342C22.3275 19.3511 22.6178 17.4499 22.4425 15.4908C22.2725 13.5914 21.661 11.6041 21.1417 10.1705C22.7832 10.2994 24.4636 10.7673 25.6212 11.1598C26.1603 11.3425 26.5143 11.5295 26.7882 11.7916C27.0625 12.0541 27.2642 12.3997 27.4855 12.9156C28.1801 14.5348 29.9373 15.0318 31.545 15.0318H33.2999C33.0929 16.9736 32.4791 19.0415 30.9073 20.2516C29.0181 21.7058 26.5963 21.2956 24.5939 20.2018C24.0925 19.928 23.6066 20.0871 23.3937 20.4205C23.2878 20.5865 23.252 20.7931 23.3195 20.9986C23.3868 21.2037 23.5532 21.3962 23.8282 21.5465C26.3671 22.9334 29.4471 23.3337 31.879 21.4615C34.0893 19.7599 34.7949 16.8868 34.9357 14.3033L34.9738 13.5982L34.9796 13.4928H31.545C31.0511 13.4928 30.4966 13.437 30.0157 13.2604C29.5361 13.0841 29.1379 12.7904 28.9357 12.3189C28.6336 11.6146 28.3079 11.0856 27.8673 10.6695C27.4265 10.2532 26.8767 9.95584 26.1359 9.70469C24.5744 9.17519 22.494 8.63199 20.506 8.59824C18.5195 8.56458 16.6029 9.03988 15.4005 10.5729C13.1792 13.4051 12.4412 16.7453 13.2462 20.2184C13.9381 23.2031 15.7245 26.0282 17.9991 28.108C20.6889 30.5674 24.1335 32.1383 27.7931 32.5631C28.1435 32.6039 28.4954 32.6326 28.8478 32.652C28.6423 33.4229 28.2744 34.1556 27.5822 34.5699C27.0865 34.8665 26.456 34.9793 25.7511 34.9615C25.0469 34.9437 24.2759 34.7962 23.506 34.5807C21.9661 34.1496 20.445 33.4507 19.4933 32.9977C16.3875 31.5192 12.1163 30.5814 8.6593 31.4684C8.13134 30.7908 7.29844 30.3531 6.36047 30.3531C4.76716 30.3533 3.4718 31.615 3.4718 33.1764C3.47206 34.7377 4.76731 35.9995 6.36047 35.9996C7.95378 35.9996 9.24986 34.7378 9.25012 33.1764C9.25012 33.0879 9.24359 33.0001 9.23547 32.9137C12.2701 32.2047 16.0876 33.0885 18.8058 34.3824C20.0421 34.971 21.7631 35.7472 23.5089 36.1773ZM19.9601 19.2301C19.3211 19.729 18.3834 19.7569 17.4171 19.5709C16.4557 19.3858 15.4937 18.9946 14.8322 18.69L14.5577 18.5641C14.2905 16.0232 14.9928 13.6212 16.6476 11.5113C17.2958 10.6849 18.3098 10.2958 19.4718 10.1773C20.1837 12.0447 20.8595 14.252 20.9132 16.2232C20.9269 16.7278 20.8997 17.3177 20.7618 17.8639C20.6238 18.4106 20.3773 18.9043 19.9601 19.2301ZM38.0724 14.0045C38.7196 13.6603 39.2915 13.2157 39.5519 12.4684L39.5802 12.3854L39.5021 12.3463C38.4774 11.8329 37.4648 11.9285 36.4708 12.3434L36.3663 12.3863L36.423 12.485C36.7289 13.0179 37.2629 13.5202 37.9698 13.9986L38.0197 14.0328L38.0724 14.0045ZM24.7677 15.4332C25.4791 15.4331 26.0597 14.8698 26.0597 14.1695C26.0596 13.4693 25.4791 12.906 24.7677 12.9059C24.0564 12.9059 23.4758 13.4692 23.4757 14.1695C23.4757 14.8698 24.0563 15.4332 24.7677 15.4332ZM6.36047 34.4596C5.63095 34.4594 5.04335 33.8828 5.04309 33.1764C5.04309 32.4699 5.63079 31.8923 6.36047 31.8922C7.09028 31.8922 7.67786 32.4698 7.67786 33.1764C7.6776 33.8829 7.09012 34.4596 6.36047 34.4596Z" fill="#36187D" stroke="#36187D" stroke-width="0.2"/>
<path d="M59.66 28V14H65.72C66.9733 14 68.0533 14.2067 68.96 14.62C69.8667 15.02 70.5667 15.6 71.06 16.36C71.5533 17.12 71.8 18.0267 71.8 19.08C71.8 20.12 71.5533 21.02 71.06 21.78C70.5667 22.54 69.8667 23.1267 68.96 23.54C68.0533 23.94 66.9733 24.14 65.72 24.14H61.46L62.9 22.68V28H59.66ZM62.9 23.04L61.46 21.5H65.54C66.54 21.5 67.2867 21.2867 67.78 20.86C68.2733 20.4333 68.52 19.84 68.52 19.08C68.52 18.3067 68.2733 17.7067 67.78 17.28C67.2867 16.8533 66.54 16.64 65.54 16.64H61.46L62.9 15.1V23.04ZM78.6136 28.16C77.3869 28.16 76.3069 27.92 75.3736 27.44C74.4536 26.96 73.7403 26.3067 73.2336 25.48C72.7269 24.64 72.4736 23.6867 72.4736 22.62C72.4736 21.54 72.7203 20.5867 73.2136 19.76C73.7203 18.92 74.4069 18.2667 75.2736 17.8C76.1403 17.32 77.1203 17.08 78.2136 17.08C79.2669 17.08 80.2136 17.3067 81.0536 17.76C81.9069 18.2 82.5803 18.84 83.0736 19.68C83.5669 20.5067 83.8136 21.5 83.8136 22.66C83.8136 22.78 83.8069 22.92 83.7936 23.08C83.7803 23.2267 83.7669 23.3667 83.7536 23.5H75.0136V21.68H82.1136L80.9136 22.22C80.9136 21.66 80.8003 21.1733 80.5736 20.76C80.3469 20.3467 80.0336 20.0267 79.6336 19.8C79.2336 19.56 78.7669 19.44 78.2336 19.44C77.7003 19.44 77.2269 19.56 76.8136 19.8C76.4136 20.0267 76.1003 20.3533 75.8736 20.78C75.6469 21.1933 75.5336 21.6867 75.5336 22.26V22.74C75.5336 23.3267 75.6603 23.8467 75.9136 24.3C76.1803 24.74 76.5469 25.08 77.0136 25.32C77.4936 25.5467 78.0536 25.66 78.6936 25.66C79.2669 25.66 79.7669 25.5733 80.1936 25.4C80.6336 25.2267 81.0336 24.9667 81.3936 24.62L83.0536 26.42C82.5603 26.98 81.9403 27.4133 81.1936 27.72C80.4469 28.0133 79.5869 28.16 78.6136 28.16ZM89.6908 28.16C88.4241 28.16 87.4374 27.84 86.7308 27.2C86.0241 26.5467 85.6708 25.58 85.6708 24.3V14.86H88.7908V24.26C88.7908 24.7133 88.9108 25.0667 89.1508 25.32C89.3908 25.56 89.7174 25.68 90.1308 25.68C90.6241 25.68 91.0441 25.5467 91.3908 25.28L92.2308 27.48C91.9108 27.7067 91.5241 27.88 91.0708 28C90.6308 28.1067 90.1708 28.16 89.6908 28.16ZM84.0108 19.88V17.48H91.4708V19.88H84.0108ZM93.6022 28V14H99.6622C100.916 14 101.996 14.2067 102.902 14.62C103.809 15.02 104.509 15.6 105.002 16.36C105.496 17.12 105.742 18.0267 105.742 19.08C105.742 20.12 105.496 21.02 105.002 21.78C104.509 22.54 103.809 23.1267 102.902 23.54C101.996 23.94 100.916 24.14 99.6622 24.14H95.4022L96.8422 22.68V28H93.6022ZM96.8422 23.04L95.4022 21.5H99.4822C100.482 21.5 101.229 21.2867 101.722 20.86C102.216 20.4333 102.462 19.84 102.462 19.08C102.462 18.3067 102.216 17.7067 101.722 17.28C101.229 16.8533 100.482 16.64 99.4822 16.64H95.4022L96.8422 15.1V23.04ZM113.738 28V25.9L113.538 25.44V21.68C113.538 21.0133 113.331 20.4933 112.918 20.12C112.518 19.7467 111.898 19.56 111.058 19.56C110.484 19.56 109.918 19.6533 109.358 19.84C108.811 20.0133 108.344 20.2533 107.958 20.56L106.838 18.38C107.424 17.9667 108.131 17.6467 108.958 17.42C109.784 17.1933 110.624 17.08 111.478 17.08C113.118 17.08 114.391 17.4667 115.298 18.24C116.204 19.0133 116.658 20.22 116.658 21.86V28H113.738ZM110.458 28.16C109.618 28.16 108.898 28.02 108.298 27.74C107.698 27.4467 107.238 27.0533 106.918 26.56C106.598 26.0667 106.438 25.5133 106.438 24.9C106.438 24.26 106.591 23.7 106.898 23.22C107.218 22.74 107.718 22.3667 108.398 22.1C109.078 21.82 109.964 21.68 111.058 21.68H113.918V23.5H111.398C110.664 23.5 110.158 23.62 109.878 23.86C109.611 24.1 109.478 24.4 109.478 24.76C109.478 25.16 109.631 25.48 109.938 25.72C110.258 25.9467 110.691 26.06 111.238 26.06C111.758 26.06 112.224 25.94 112.638 25.7C113.051 25.4467 113.351 25.08 113.538 24.6L114.018 26.04C113.791 26.7333 113.378 27.26 112.778 27.62C112.178 27.98 111.404 28.16 110.458 28.16ZM122.501 28.16C121.581 28.16 120.695 28.0533 119.841 27.84C119.001 27.6133 118.335 27.3333 117.841 27L118.881 24.76C119.375 25.0667 119.955 25.32 120.621 25.52C121.301 25.7067 121.968 25.8 122.621 25.8C123.341 25.8 123.848 25.7133 124.141 25.54C124.448 25.3667 124.601 25.1267 124.601 24.82C124.601 24.5667 124.481 24.38 124.241 24.26C124.015 24.1267 123.708 24.0267 123.321 23.96C122.935 23.8933 122.508 23.8267 122.041 23.76C121.588 23.6933 121.128 23.6067 120.661 23.5C120.195 23.38 119.768 23.2067 119.381 22.98C118.995 22.7533 118.681 22.4467 118.441 22.06C118.215 21.6733 118.101 21.1733 118.101 20.56C118.101 19.88 118.295 19.28 118.681 18.76C119.081 18.24 119.655 17.8333 120.401 17.54C121.148 17.2333 122.041 17.08 123.081 17.08C123.815 17.08 124.561 17.16 125.321 17.32C126.081 17.48 126.715 17.7133 127.221 18.02L126.181 20.24C125.661 19.9333 125.135 19.7267 124.601 19.62C124.081 19.5 123.575 19.44 123.081 19.44C122.388 19.44 121.881 19.5333 121.561 19.72C121.241 19.9067 121.081 20.1467 121.081 20.44C121.081 20.7067 121.195 20.9067 121.421 21.04C121.661 21.1733 121.975 21.28 122.361 21.36C122.748 21.44 123.168 21.5133 123.621 21.58C124.088 21.6333 124.555 21.72 125.021 21.84C125.488 21.96 125.908 22.1333 126.281 22.36C126.668 22.5733 126.981 22.8733 127.221 23.26C127.461 23.6333 127.581 24.1267 127.581 24.74C127.581 25.4067 127.381 26 126.981 26.52C126.581 27.0267 126.001 27.4267 125.241 27.72C124.495 28.0133 123.581 28.16 122.501 28.16ZM132.526 28.16C131.606 28.16 130.72 28.0533 129.866 27.84C129.026 27.6133 128.36 27.3333 127.866 27L128.906 24.76C129.4 25.0667 129.98 25.32 130.646 25.52C131.326 25.7067 131.993 25.8 132.646 25.8C133.366 25.8 133.873 25.7133 134.166 25.54C134.473 25.3667 134.626 25.1267 134.626 24.82C134.626 24.5667 134.506 24.38 134.266 24.26C134.04 24.1267 133.733 24.0267 133.346 23.96C132.96 23.8933 132.533 23.8267 132.066 23.76C131.613 23.6933 131.153 23.6067 130.686 23.5C130.22 23.38 129.793 23.2067 129.406 22.98C129.02 22.7533 128.706 22.4467 128.466 22.06C128.24 21.6733 128.126 21.1733 128.126 20.56C128.126 19.88 128.32 19.28 128.706 18.76C129.106 18.24 129.68 17.8333 130.426 17.54C131.173 17.2333 132.066 17.08 133.106 17.08C133.84 17.08 134.586 17.16 135.346 17.32C136.106 17.48 136.74 17.7133 137.246 18.02L136.206 20.24C135.686 19.9333 135.16 19.7267 134.626 19.62C134.106 19.5 133.6 19.44 133.106 19.44C132.413 19.44 131.906 19.5333 131.586 19.72C131.266 19.9067 131.106 20.1467 131.106 20.44C131.106 20.7067 131.22 20.9067 131.446 21.04C131.686 21.1733 132 21.28 132.386 21.36C132.773 21.44 133.193 21.5133 133.646 21.58C134.113 21.6333 134.58 21.72 135.046 21.84C135.513 21.96 135.933 22.1333 136.306 22.36C136.693 22.5733 137.006 22.8733 137.246 23.26C137.486 23.6333 137.606 24.1267 137.606 24.74C137.606 25.4067 137.406 26 137.006 26.52C136.606 27.0267 136.026 27.4267 135.266 27.72C134.52 28.0133 133.606 28.16 132.526 28.16ZM145.291 28.16C144.385 28.16 143.591 27.96 142.911 27.56C142.231 27.16 141.698 26.5533 141.311 25.74C140.938 24.9133 140.751 23.8733 140.751 22.62C140.751 21.3533 140.931 20.3133 141.291 19.5C141.651 18.6867 142.171 18.08 142.851 17.68C143.531 17.28 144.345 17.08 145.291 17.08C146.305 17.08 147.211 17.3133 148.011 17.78C148.825 18.2333 149.465 18.8733 149.931 19.7C150.411 20.5267 150.651 21.5 150.651 22.62C150.651 23.7533 150.411 24.7333 149.931 25.56C149.465 26.3867 148.825 27.0267 148.011 27.48C147.211 27.9333 146.305 28.16 145.291 28.16ZM138.931 31.88V17.24H141.911V19.44L141.851 22.64L142.051 25.82V31.88H138.931ZM144.751 25.6C145.271 25.6 145.731 25.48 146.131 25.24C146.545 25 146.871 24.66 147.111 24.22C147.365 23.7667 147.491 23.2333 147.491 22.62C147.491 21.9933 147.365 21.46 147.111 21.02C146.871 20.58 146.545 20.24 146.131 20C145.731 19.76 145.271 19.64 144.751 19.64C144.231 19.64 143.765 19.76 143.351 20C142.938 20.24 142.611 20.58 142.371 21.02C142.131 21.46 142.011 21.9933 142.011 22.62C142.011 23.2333 142.131 23.7667 142.371 24.22C142.611 24.66 142.938 25 143.351 25.24C143.765 25.48 144.231 25.6 144.751 25.6ZM157.26 28.16C156.113 28.16 155.093 27.92 154.2 27.44C153.32 26.96 152.62 26.3067 152.1 25.48C151.593 24.64 151.34 23.6867 151.34 22.62C151.34 21.54 151.593 20.5867 152.1 19.76C152.62 18.92 153.32 18.2667 154.2 17.8C155.093 17.32 156.113 17.08 157.26 17.08C158.393 17.08 159.407 17.32 160.3 17.8C161.193 18.2667 161.893 18.9133 162.4 19.74C162.907 20.5667 163.16 21.5267 163.16 22.62C163.16 23.6867 162.907 24.64 162.4 25.48C161.893 26.3067 161.193 26.96 160.3 27.44C159.407 27.92 158.393 28.16 157.26 28.16ZM157.26 25.6C157.78 25.6 158.247 25.48 158.66 25.24C159.073 25 159.4 24.66 159.64 24.22C159.88 23.7667 160 23.2333 160 22.62C160 21.9933 159.88 21.46 159.64 21.02C159.4 20.58 159.073 20.24 158.66 20C158.247 19.76 157.78 19.64 157.26 19.64C156.74 19.64 156.273 19.76 155.86 20C155.447 20.24 155.113 20.58 154.86 21.02C154.62 21.46 154.5 21.9933 154.5 22.62C154.5 23.2333 154.62 23.7667 154.86 24.22C155.113 24.66 155.447 25 155.86 25.24C156.273 25.48 156.74 25.6 157.26 25.6ZM164.645 28V17.24H167.625V20.28L167.205 19.4C167.525 18.64 168.039 18.0667 168.745 17.68C169.452 17.28 170.312 17.08 171.325 17.08V19.96C171.192 19.9467 171.072 19.94 170.965 19.94C170.859 19.9267 170.745 19.92 170.625 19.92C169.772 19.92 169.079 20.1667 168.545 20.66C168.025 21.14 167.765 21.8933 167.765 22.92V28H164.645ZM177.352 28.16C176.085 28.16 175.098 27.84 174.392 27.2C173.685 26.5467 173.332 25.58 173.332 24.3V14.86H176.452V24.26C176.452 24.7133 176.572 25.0667 176.812 25.32C177.052 25.56 177.378 25.68 177.792 25.68C178.285 25.68 178.705 25.5467 179.052 25.28L179.892 27.48C179.572 27.7067 179.185 27.88 178.732 28C178.292 28.1067 177.832 28.16 177.352 28.16ZM171.672 19.88V17.48H179.132V19.88H171.672Z" fill="#36187D"/>
</svg>
