<svg width="16" height="16" viewBox="0 0 16 16" fill="none" xmlns="http://www.w3.org/2000/svg">
<g clip-path="url(#clip0_100_6222)">
<path d="M8 16C5.86312 16 3.85416 15.1678 2.34313 13.6569C0.832156 12.1458 0 10.1369 0 8C0 5.86312 0.832156 3.85416 2.34313 2.34313C3.85416 0.832156 5.86312 0 8 0C10.1369 0 12.1458 0.832156 13.6569 2.34313C15.1678 3.85416 16 5.86312 16 8C16 10.1369 15.1678 12.1458 13.6569 13.6569C12.1458 15.1678 10.1369 16 8 16ZM8 1.25C4.27803 1.25 1.25 4.27803 1.25 8C1.25 11.722 4.27803 14.75 8 14.75C11.722 14.75 14.75 11.722 14.75 8C14.75 4.27803 11.722 1.25 8 1.25ZM7.96875 8.59375C6.31453 8.59375 4.96875 7.24797 4.96875 5.59375C4.96875 3.93953 6.31453 2.59375 7.96875 2.59375C9.62297 2.59375 10.9688 3.93953 10.9688 5.59375C10.9688 7.24797 9.62297 8.59375 7.96875 8.59375ZM7.96875 3.84375C7.00378 3.84375 6.21875 4.62881 6.21875 5.59375C6.21875 6.55869 7.00378 7.34375 7.96875 7.34375C8.93372 7.34375 9.71875 6.55869 9.71875 5.59375C9.71875 4.62881 8.93372 3.84375 7.96875 3.84375Z" fill="#8B90A6"/>
<path d="M11.5328 12.375C11.3519 12.375 11.1726 12.2969 11.049 12.146C10.4036 11.3581 9.45022 10.9062 8.43329 10.9062H7.69172C6.67479 10.9062 5.72141 11.3581 5.07607 12.146C4.85735 12.413 4.46354 12.4522 4.1965 12.2335C3.92944 12.0148 3.89029 11.621 4.109 11.3539C4.99279 10.275 6.29863 9.65625 7.69172 9.65625H8.43329C9.82638 9.65625 11.1322 10.275 12.016 11.354C12.2347 11.621 12.1955 12.0148 11.9285 12.2335C11.8123 12.3287 11.6722 12.375 11.5328 12.375Z" fill="#8B90A6"/>
</g>
<defs>
<clipPath id="clip0_100_6222">
<rect width="16" height="16" fill="white"/>
</clipPath>
</defs>
</svg>
