<svg width="16" height="16" viewBox="0 0 16 16" fill="none" xmlns="http://www.w3.org/2000/svg">
<g clip-path="url(#clip0_86_4511)">
<path d="M8.00035 6.25016C6.1926 6.25016 5.02657 5.82001 4.49238 5.5636C4.18119 5.41423 4.05 5.04088 4.19941 4.7297C4.34878 4.41851 4.72216 4.28729 5.03332 4.43673C5.38625 4.60613 6.38188 5.00016 8.00035 5.00016C9.53557 5.00016 10.543 4.65076 11.0068 4.44251C11.3218 4.3011 11.6917 4.44179 11.833 4.75666C11.9744 5.07157 11.8337 5.44145 11.5188 5.58282C10.9638 5.83207 9.76854 6.25016 8.00035 6.25016Z" fill="#8B90A6"/>
<path d="M14.125 8.75C13.8867 8.75 13.6503 8.81063 13.6391 8.81262C14.5644 6.14153 14.875 5.69178 14.875 5C14.875 4.31684 14.5591 3.65597 13.9615 3.08881C13.5521 2.70031 13.0063 2.355 12.3641 2.07456C12.371 2.00856 12.375 1.94206 12.375 1.875C12.375 0.841125 11.5339 0 10.5 0C9.67725 0 8.97709 0.532906 8.72522 1.2715C8.47412 1.25738 8.23144 1.25 8 1.25C7.76856 1.25 7.52588 1.25738 7.27478 1.2715C7.02291 0.532906 6.32275 0 5.5 0C4.46613 0 3.625 0.841125 3.625 1.875C3.625 1.94206 3.629 2.00856 3.63594 2.07456C2.99369 2.355 2.44794 2.70031 2.03853 3.08881C1.44091 3.65597 1.125 4.31684 1.125 5C1.125 5.67575 1.38381 6.00569 2.36094 8.81262C2.35725 8.81197 2.12747 8.75 1.875 8.75C0.841125 8.75 0 9.59113 0 10.625C0 11.1604 0.223969 11.658 0.630687 12.026C0.634875 12.0297 0.639094 12.0335 0.643375 12.0371L3.80988 14.75H1.75C1.40481 14.75 1.125 15.0298 1.125 15.375C1.125 15.7202 1.40481 16 1.75 16C1.99947 16 5.58297 16 5.5 16C5.94137 16 6.23987 15.5557 6.08284 15.1493L3.92359 9.45788L3.31625 7.77872C4.54225 8.38903 6.18738 8.75 8 8.75C9.81262 8.75 11.4578 8.38903 12.6838 7.77869L12.0764 9.45784L9.91719 15.1493C9.76 15.556 10.0587 16 10.5 16H10.5003H14.25C14.5952 16 14.875 15.7202 14.875 15.375C14.875 15.0298 14.5952 14.75 14.25 14.75H12.1901L15.3566 12.0371C15.3609 12.0335 15.3651 12.0297 15.3693 12.026C15.776 11.658 16 11.1604 16 10.625C16 9.59113 15.1589 8.75 14.125 8.75ZM9.875 1.875C9.875 1.53038 10.1554 1.25 10.5 1.25C10.8446 1.25 11.125 1.53038 11.125 1.875C11.125 1.97787 11.104 2.06716 11.057 2.16334C10.9452 2.36809 10.7273 2.5 10.5 2.5C10.1728 2.5 9.90103 2.24506 9.875 1.91688V1.875ZM5.5 1.25C5.84462 1.25 6.125 1.53038 6.125 1.875V1.91688C6.09897 2.24506 5.82719 2.5 5.5 2.5C5.27269 2.5 5.05484 2.36809 4.94297 2.16334C4.89603 2.06716 4.875 1.97787 4.875 1.875C4.875 1.53038 5.15538 1.25 5.5 1.25ZM1.25 10.625C1.25 10.2804 1.53038 10 1.875 10C1.91272 10 1.96241 10.0068 2.00519 10.0137L2.87216 10.2103L4.04706 13.3072L1.464 11.0941C1.322 10.9634 1.25 10.8056 1.25 10.625ZM8 7.5C4.96316 7.5 2.375 6.29862 2.375 5C2.375 4.34966 3.0545 3.68084 4.17588 3.20234C4.52388 3.54847 4.9965 3.75 5.5 3.75C6.30137 3.75 6.99122 3.24287 7.2585 2.5245C7.51728 2.50828 7.7655 2.5 8 2.5C8.2345 2.5 8.48272 2.50828 8.7415 2.5245C9.00878 3.24287 9.69862 3.75 10.5 3.75C11.0035 3.75 11.4761 3.54847 11.8241 3.20234C12.9455 3.68084 13.625 4.34966 13.625 5C13.625 6.24438 11.1689 7.5 8 7.5ZM14.5361 11.0942L11.953 13.3072L13.1279 10.2103L13.9949 10.0137C14.0376 10.0068 14.0873 10 14.1251 10C14.4697 10 14.7501 10.2804 14.7501 10.625C14.75 10.8056 14.678 10.9634 14.5361 11.0942Z" fill="#8B90A6"/>
<path d="M8 11.25C7.65481 11.25 7.375 11.5298 7.375 11.875V15.375C7.375 15.7202 7.65481 16 8 16C8.34519 16 8.625 15.7202 8.625 15.375V11.875C8.625 11.5298 8.34519 11.25 8 11.25Z" fill="#8B90A6"/>
</g>
<defs>
<clipPath id="clip0_86_4511">
<rect width="16" height="16" fill="white"/>
</clipPath>
</defs>
</svg>
