<svg width="16" height="16" viewBox="0 0 16 16" fill="none" xmlns="http://www.w3.org/2000/svg">
<g clip-path="url(#clip0_86_4542)">
<path d="M8.125 3.75C7.96103 3.74616 7.88209 3.76128 7.76084 3.72891C6.20862 3.54797 5 2.22497 5 0.625C5 0.279813 5.27981 0 5.625 0H8.75C9.34153 0 9.91759 0.166219 10.416 0.480719C10.7079 0.664937 10.7952 1.05091 10.611 1.34281C10.4267 1.63475 10.0407 1.722 9.74884 1.53781C9.45047 1.34953 9.10506 1.25 8.75 1.25H6.35709C6.61503 1.97753 7.31016 2.5 8.125 2.5C8.47019 2.5 8.75 2.77981 8.75 3.125C8.75 3.47019 8.47019 3.75 8.125 3.75Z" fill="#8B90A6"/>
<path d="M14.125 12.25C13.7804 12.25 13.5 11.9696 13.5 11.625V9.125C13.5 8.78038 13.7804 8.5 14.125 8.5C15.1589 8.5 16 7.65887 16 6.625C16 4.21263 14.0374 2.25 11.625 2.25C10.2465 2.25 9.125 3.3715 9.125 4.75V5.375C9.125 5.71962 8.84463 6 8.5 6H7.5C5.62044 6 3.98006 7.04266 3.12613 8.57978C2.92253 8.52725 2.71209 8.5 2.5 8.5C1.1215 8.5 0 9.6215 0 11C0 12.3785 1.1215 13.5 2.5 13.5C2.71209 13.5 2.92253 13.4727 3.12613 13.4202C3.98006 14.9573 5.62044 16 7.5 16H14.125C15.1589 16 16 15.1589 16 14.125C16 13.0911 15.1589 12.25 14.125 12.25ZM2.5 12.25C1.81075 12.25 1.25 11.6892 1.25 11C1.25 10.3108 1.81075 9.75 2.5 9.75C2.55225 9.75 2.60422 9.7535 2.65572 9.75991C2.55413 10.1566 2.5 10.5721 2.5 11C2.5 11.4279 2.55413 11.8434 2.65572 12.2401C2.60422 12.2465 2.55225 12.25 2.5 12.25ZM14.125 14.75H12.1429C12.2122 14.5544 12.25 14.344 12.25 14.125C12.25 13.0911 11.4089 12.25 10.375 12.25H9.68722C9.39681 10.8254 8.13409 9.75 6.625 9.75C6.27981 9.75 6 10.0298 6 10.375C6 10.7202 6.27981 11 6.625 11C7.65887 11 8.5 11.8411 8.5 12.875C8.5 13.2202 8.77981 13.5 9.125 13.5H10.375C10.7196 13.5 11 13.7804 11 14.125C11 14.4696 10.7196 14.75 10.375 14.75H7.5C5.43225 14.75 3.75 13.0677 3.75 11C3.75 8.93225 5.43225 7.25 7.5 7.25H8.5C9.53387 7.25 10.375 6.40887 10.375 5.375V4.75C10.375 4.06075 10.9358 3.5 11.625 3.5C13.3482 3.5 14.75 4.90188 14.75 6.625C14.75 6.96962 14.4696 7.25 14.125 7.25C13.0911 7.25 12.25 8.09113 12.25 9.125V11.625C12.25 12.6589 13.0911 13.5 14.125 13.5C14.4696 13.5 14.75 13.7804 14.75 14.125C14.75 14.4696 14.4696 14.75 14.125 14.75Z" fill="#8B90A6"/>
<path d="M12.875 6C13.2202 6 13.5 5.72018 13.5 5.375C13.5 5.02982 13.2202 4.75 12.875 4.75C12.5298 4.75 12.25 5.02982 12.25 5.375C12.25 5.72018 12.5298 6 12.875 6Z" fill="#8B90A6"/>
</g>
<defs>
<clipPath id="clip0_86_4542">
<rect width="16" height="16" fill="white"/>
</clipPath>
</defs>
</svg>
