<svg width="20" height="20" viewBox="0 0 20 20" fill="none" xmlns="http://www.w3.org/2000/svg">
<g clip-path="url(#clip0_62_1832)">
<path d="M6.09376 16.0935C4.90221 14.9074 5.36628 13.4894 6.5588 12.3042L13.2858 5.56322L11.6994 3.98398L4.21497 11.4839C3.02245 12.6691 3.02167 14.5981 4.21321 15.7843C4.8408 16.409 5.67386 16.7024 6.49447 16.6643L6.09376 16.0935Z" fill="#D7EBF5"/>
<path d="M19.2187 14.2576H18.6669C18.5712 13.8127 18.3956 13.3972 18.1558 13.0268L18.5601 12.6224C18.8653 12.3173 18.8653 11.8227 18.5601 11.5176C18.255 11.2125 17.7604 11.2125 17.4553 11.5176L17.0509 11.922C16.6806 11.6821 16.2651 11.5065 15.8202 11.4108V10.8591C15.8202 10.4276 15.4704 10.0778 15.0389 10.0778C14.6074 10.0778 14.2576 10.4276 14.2576 10.8591V11.4108C13.8128 11.5065 13.3972 11.6821 13.0269 11.922L12.6225 11.5176C12.3174 11.2125 11.8228 11.2125 11.5177 11.5176C11.2126 11.8227 11.2126 12.3174 11.5177 12.6224L11.9221 13.0268C11.6822 13.3971 11.5066 13.8126 11.4109 14.2576H10.8592C10.4277 14.2576 10.0779 14.6073 10.0779 15.0388C10.0779 15.4703 10.4277 15.8201 10.8592 15.8201H11.4109C11.5066 16.265 11.6822 16.6805 11.9221 17.0508L11.5177 17.4552C11.2126 17.7603 11.2126 18.255 11.5177 18.5601C11.6702 18.7126 11.8701 18.7889 12.0701 18.7889C12.2701 18.7889 12.47 18.7126 12.6225 18.5601L13.0269 18.1557C13.3972 18.3955 13.8127 18.5711 14.2576 18.6668V19.2186C14.2576 19.6501 14.6074 19.9998 15.0389 19.9998C15.4704 19.9998 15.8202 19.6501 15.8202 19.2186V18.6668C16.2651 18.5711 16.6806 18.3955 17.0509 18.1557L17.4553 18.5601C17.6078 18.7126 17.8077 18.7889 18.0077 18.7889C18.2077 18.7889 18.4076 18.7126 18.5601 18.5601C18.8653 18.2549 18.8653 17.7603 18.5601 17.4552L18.1558 17.0508C18.3956 16.6805 18.5712 16.265 18.6669 15.8201H19.2187C19.6502 15.8201 19.9999 15.4703 19.9999 15.0388C19.9999 14.6073 19.6502 14.2576 19.2187 14.2576ZM15.0389 17.1873C13.8542 17.1873 12.8904 16.2235 12.8904 15.0388C12.8904 13.8542 13.8542 12.8903 15.0389 12.8903C16.2236 12.8903 17.1874 13.8542 17.1874 15.0388C17.1874 16.2235 16.2236 17.1873 15.0389 17.1873ZM9.00174 15.2414C9.30522 15.5482 9.30256 16.0429 8.9958 16.3463C8.27696 17.0575 7.32456 17.4489 6.3136 17.4489C6.31157 17.4489 6.30958 17.4489 6.30755 17.4489C5.29433 17.4474 4.34083 17.0528 3.62273 16.338C2.898 15.6166 2.49908 14.656 2.49951 13.6334C2.49994 12.6108 2.89964 11.6507 3.62496 10.9298L11.107 3.43205C11.4115 3.12689 11.9057 3.12611 12.2112 3.43022L16.5276 7.72717C16.8334 8.03159 16.8346 8.52624 16.5301 8.83203C16.2257 9.13782 15.731 9.13895 15.4253 8.83453L11.6618 5.0881L4.72865 12.0358C4.29818 12.4636 4.06223 13.0304 4.062 13.6341C4.06177 14.2378 4.29724 14.8047 4.72506 15.2306C5.5982 16.0998 7.02104 16.102 7.89687 15.2355C8.2036 14.932 8.69825 14.9347 9.00174 15.2414ZM10.1225 11.5677C9.96996 11.7203 9.77003 11.7966 9.57007 11.7966C9.3701 11.7966 9.17018 11.7203 9.01763 11.5677L8.43169 10.9818C8.12656 10.6767 8.12656 10.182 8.43169 9.87693C8.73681 9.57181 9.23147 9.57181 9.53655 9.87693L10.1225 10.4629C10.4276 10.768 10.4276 11.2626 10.1225 11.5677ZM11.6669 7.63279L12.292 8.21874C12.6067 8.51386 12.6227 9.00825 12.3276 9.32306C12.1738 9.48708 11.9658 9.56997 11.7574 9.56997C11.5659 9.56997 11.374 9.49997 11.2233 9.35868L10.5982 8.77273C10.2835 8.47761 10.2675 7.98323 10.5626 7.66842C10.8578 7.35365 11.3522 7.33771 11.6669 7.63279ZM7.30995 12.1035L7.8959 12.6895C8.20102 12.9946 8.20102 13.4893 7.8959 13.7943C7.74335 13.9469 7.54343 14.0232 7.34346 14.0232C7.1435 14.0232 6.94357 13.9469 6.79103 13.7943L6.20508 13.2084C5.89996 12.9033 5.89996 12.4086 6.20508 12.1035C6.51021 11.7985 7.00486 11.7984 7.30995 12.1035Z" fill="#34B9FC"/>
<path d="M16.0156 15.0391C16.0156 15.5784 15.5783 16.0157 15.039 16.0157C14.4996 16.0157 14.0624 15.5784 14.0624 15.0391C14.0624 14.4997 14.4996 14.0625 15.039 14.0625C15.5783 14.0625 16.0156 14.4997 16.0156 15.0391ZM19.7709 3.82307L16.177 0.229254C15.8719 -0.0758687 15.3773 -0.0758687 15.0722 0.229254C14.7671 0.534376 14.7671 1.02903 15.0722 1.33412L16.3166 2.57855L15.1116 3.78326C14.8065 4.08835 14.8064 4.583 15.1115 4.88812C15.2641 5.04074 15.464 5.117 15.664 5.117C15.8639 5.117 16.0639 5.04071 16.2164 4.88824L17.4215 3.68342L18.666 4.92793C18.8186 5.08047 19.0185 5.15676 19.2185 5.15676C19.4184 5.15676 19.6183 5.08047 19.7709 4.92793C20.0759 4.62285 20.0759 4.12819 19.7709 3.82307ZM1.87577 17.0583L0.235471 18.6599C-0.0732458 18.9613 -0.0791834 19.4559 0.222267 19.7646C0.375356 19.9214 0.578211 20.0001 0.78134 20.0001C0.97814 20.0001 1.17517 19.9262 1.32709 19.7778L2.96739 18.1762C3.27611 17.8748 3.28205 17.3802 2.9806 17.0715C2.67915 16.7627 2.18449 16.7568 1.87577 17.0583Z" fill="#34B9FC"/>
</g>
<defs>
<clipPath id="clip0_62_1832">
<rect width="20" height="20" fill="white"/>
</clipPath>
</defs>
</svg>
